<?xml version="1.0" encoding="utf-8"?>
<!-- Generator: Adobe Illustrator 23.0.1, SVG Export Plug-In . SVG Version: 6.00 Build 0)  -->
<svg version="1.1" id="图层_1" xmlns="http://www.w3.org/2000/svg" xmlns:xlink="http://www.w3.org/1999/xlink" x="0px" y="0px"
	 viewBox="0 0 30 30" style="enable-background:new 0 0 30 30;" xml:space="preserve">
<style type="text/css">
	.st0{fill-rule:evenodd;clip-rule:evenodd;fill:#FFFFFF;filter:url(#Adobe_OpacityMaskFilter);}
	.st1{mask:url(#mask1_1_);}
	.st2{fill:url(#SVGID_1_);}
	.st3{fill:url(#SVGID_2_);}
	.st4{fill:url(#SVGID_3_);}
	.st5{fill:url(#SVGID_4_);}
</style>
<defs>
	<filter id="Adobe_OpacityMaskFilter" filterUnits="userSpaceOnUse">
		<feColorMatrix  type="matrix" values="1 0 0 0 0  0 1 0 0 0  0 0 1 0 0  0 0 0 1 0"/>
	</filter>
</defs>
<mask maskUnits="userSpaceOnUse" id="mask1_1_">
	<path class="st0" d="M24.8,3.7C28,6.4,30,10.5,30,15c0,4.5-2,8.6-5.2,11.3c0,0-11.3-11.3-11.3-11.3L24.8,3.7z"/>
</mask>
<g class="st1">
</g>
<linearGradient id="SVGID_1_" gradientUnits="userSpaceOnUse" x1="2" y1="8" x2="14" y2="8">
	<stop  offset="0" style="stop-color:#4899F7"/>
	<stop  offset="1" style="stop-color:#2457F5"/>
</linearGradient>
<path class="st2" d="M12,14H4c-1.1,0-2-0.9-2-2V4c0-1.1,0.9-2,2-2h8c1.1,0,2,0.9,2,2v8C14,13.1,13.1,14,12,14z"/>
<linearGradient id="SVGID_2_" gradientUnits="userSpaceOnUse" x1="2" y1="22" x2="14" y2="22">
	<stop  offset="0" style="stop-color:#5334F5"/>
	<stop  offset="1" style="stop-color:#7B42F6"/>
</linearGradient>
<path class="st3" d="M12,28H4c-1.1,0-2-0.9-2-2v-8c0-1.1,0.9-2,2-2h8c1.1,0,2,0.9,2,2v8C14,27.1,13.1,28,12,28z"/>
<linearGradient id="SVGID_3_" gradientUnits="userSpaceOnUse" x1="16" y1="22" x2="28" y2="22">
	<stop  offset="0" style="stop-color:#4899F7"/>
	<stop  offset="1" style="stop-color:#2457F5"/>
</linearGradient>
<path class="st4" d="M26,28h-8c-1.1,0-2-0.9-2-2v-8c0-1.1,0.9-2,2-2h8c1.1,0,2,0.9,2,2v8C28,27.1,27.1,28,26,28z"/>
<linearGradient id="SVGID_4_" gradientUnits="userSpaceOnUse" x1="16" y1="7.6314" x2="28.7372" y2="7.6314">
	<stop  offset="0" style="stop-color:#9DE1E5"/>
	<stop  offset="1" style="stop-color:#B8DFB2"/>
</linearGradient>
<path class="st5" d="M26.7,14H18c-1.1,0-2-0.9-2-2V3.3c0-1.1,0.9-2,2-2h8.7c1.1,0,2,0.9,2,2V12C28.7,13.1,27.8,14,26.7,14z"/>
</svg>
